<?xml version="1.0" encoding="UTF-8"?>
<svg width="800px" height="800px" viewBox="0 0 800 800" version="1.1" xmlns="http://www.w3.org/2000/svg">
    <title>Music Pattern</title>
    <g stroke="#FFFFFF" fill="none">
        <!-- Music Notes -->
        <path d="M100,100 C150,50 200,150 150,200" stroke-width="2"></path>
        <circle cx="150" cy="200" r="15"></circle>
        
        <path d="M300,250 C350,200 400,300 350,350" stroke-width="2"></path>
        <circle cx="350" cy="350" r="15"></circle>
        
        <path d="M500,150 C550,100 600,200 550,250" stroke-width="2"></path>
        <circle cx="550" cy="250" r="15"></circle>
        
        <path d="M200,450 C250,400 300,500 250,550" stroke-width="2"></path>
        <circle cx="250" cy="550" r="15"></circle>
        
        <path d="M400,600 C450,550 500,650 450,700" stroke-width="2"></path>
        <circle cx="450" cy="700" r="15"></circle>
        
        <path d="M600,500 C650,450 700,550 650,600" stroke-width="2"></path>
        <circle cx="650" cy="600" r="15"></circle>
        
        <!-- Sound Waves -->
        <circle cx="150" cy="350" r="100" stroke-width="1"></circle>
        <circle cx="150" cy="350" r="75" stroke-width="1"></circle>
        <circle cx="150" cy="350" r="50" stroke-width="1"></circle>
        <circle cx="150" cy="350" r="25" stroke-width="1"></circle>
        
        <circle cx="650" cy="150" r="100" stroke-width="1"></circle>
        <circle cx="650" cy="150" r="75" stroke-width="1"></circle>
        <circle cx="650" cy="150" r="50" stroke-width="1"></circle>
        <circle cx="650" cy="150" r="25" stroke-width="1"></circle>
        
        <circle cx="400" cy="400" r="100" stroke-width="1"></circle>
        <circle cx="400" cy="400" r="75" stroke-width="1"></circle>
        <circle cx="400" cy="400" r="50" stroke-width="1"></circle>
        <circle cx="400" cy="400" r="25" stroke-width="1"></circle>
    </g>
</svg>
